<?xml version="1.0" encoding="UTF-8"?>
<svg version="1.1" xmlns="http://www.w3.org/2000/svg" width="512" height="512">
<path d="M0 0 C0.81726563 0.67417969 1.63453125 1.34835938 2.4765625 2.04296875 C23.20332831 19.65751121 35.59783318 46.11463757 38 73 C40.04330909 103.52192953 31.42614768 131.78346351 11.328125 155.140625 C6.2675184 160.85862285 1.21567609 165.55758533 -5 170 C-4.38181396 170.26103516 -3.76362793 170.52207031 -3.12670898 170.79101562 C24.31062574 182.42291771 48.4067991 196.26141127 70 217 C70.51433594 217.49242187 71.02867187 217.98484375 71.55859375 218.4921875 C82.67821361 229.19586148 82.67821361 229.19586148 83.30078125 234.62109375 C83.33151892 242.00837993 82.54511897 245.33368489 77.375 250.75 C73.56441509 253.73055651 69.75258253 254.23519606 65 254 C58.03349154 253.07913969 54.57192363 248.68776413 50.19921875 243.54296875 C47.09406343 239.95246056 43.67370511 236.99179663 40 234 C39.5143457 233.59668457 39.02869141 233.19336914 38.52832031 232.77783203 C3.54213068 203.81316142 -40.60675002 189.76192261 -85.91503906 193.22265625 C-122.50363368 196.79227524 -156.55862701 211.57756508 -184 236 C-185.28934393 237.06531744 -186.58054421 238.1283998 -187.875 239.1875 C-191.65324372 242.44716125 -194.80885543 246.1759562 -198 250 C-198.68964844 250.80179687 -199.37929687 251.60359375 -200.08984375 252.4296875 C-225.42227357 282.43681878 -238.33837927 319.12682955 -240.09057617 358.09155273 C-240.54539537 365.96378934 -241.79856958 369.51609043 -247.125 375.3125 C-251.32542189 377.77796502 -255.15966309 378.3020606 -260 378 C-264.71063519 376.70356878 -267.39901607 374.75508237 -270.4375 370.9375 C-279.63162774 353.65253985 -270.35660307 321.77992968 -265 304 C-254.95393979 272.42348223 -239.07391438 244.85497777 -216 221 C-215.53126465 220.5054834 -215.0625293 220.0109668 -214.57958984 219.50146484 C-194.32369079 198.14879968 -168.97109874 182.46115139 -141.4375 172.3125 C-138.21344133 171.34956335 -138.21344133 171.34956335 -137 170 C-137.68964844 169.46632812 -138.37929687 168.93265625 -139.08984375 168.3828125 C-161.58639091 150.54604397 -176.16391637 125.11383808 -179.6171875 96.4609375 C-182.39350533 67.67769635 -175.40813845 38.59373826 -157.265625 15.73046875 C-156.51796875 14.82941406 -155.7703125 13.92835937 -155 13 C-154.31421875 12.15050781 -153.6284375 11.30101562 -152.921875 10.42578125 C-136.39937272 -9.06465199 -112.93668237 -20.77558099 -88 -25 C-87.23816406 -25.13148437 -86.47632813 -25.26296875 -85.69140625 -25.3984375 C-55.06142575 -29.68316067 -23.16999605 -20.36270984 0 0 Z M-128.26953125 30.953125 C-142.77092595 48.10601625 -149.38810495 68.65151025 -148 91 C-145.57843767 111.41910609 -135.7655789 129.74809382 -120 143 C-102.07201153 156.53679686 -81.51847882 162.25377024 -59.1484375 159.53125 C-38.80497363 155.99325628 -21.06035468 145.31037185 -8.59375 128.81640625 C3.27530597 111.82635788 8.18355232 91.95464157 5.53515625 71.390625 C1.58645999 50.73590608 -8.65634376 32.9230502 -25.75 20.375 C-58.52128804 -1.55578575 -101.03954512 1.92328904 -128.26953125 30.953125 Z " fill="#656565" transform="translate(327,80)"/>
<path d="M0 0 C4.65939765 2.68712027 6.740638 4.97797238 8.73828125 10.09375 C9.52160802 13.8624882 9.99059026 17.64581971 10.42578125 21.46875 C10.55025635 22.53279053 10.67473145 23.59683105 10.80297852 24.69311523 C13.36832139 47.91095874 13.36832139 47.91095874 10.05078125 54.34375 C6.94466265 58.03751266 4.34947103 60.55668674 -0.26171875 62.09375 C-5.87771791 62.46201224 -9.43837864 62.30931007 -14.26171875 59.09375 C-18.4725128 54.82605332 -20.33065462 51.61578776 -20.76171875 45.66796875 C-20.84421875 44.56001953 -20.92671875 43.45207031 -21.01171875 42.31054688 C-21.13546875 40.56354492 -21.13546875 40.56354492 -21.26171875 38.78125 C-21.34421875 37.65912109 -21.42671875 36.53699219 -21.51171875 35.38085938 C-21.67900406 33.10551779 -21.84222351 30.82987378 -22.00146484 28.55395508 C-22.17849006 26.20031682 -22.38028756 23.84843926 -22.60400391 21.4987793 C-22.71019043 20.3519165 -22.81637695 19.20505371 -22.92578125 18.0234375 C-23.02842285 16.99331543 -23.13106445 15.96319336 -23.23681641 14.90185547 C-23.27528862 10.56354728 -21.91346009 7.46869353 -19.26171875 4.09375 C-13.84761136 -1.05625459 -7.10387739 -2.84645864 0 0 Z " fill="#656565" transform="translate(446.26171875,395.90625)"/>
</svg>
